<svg width="909" height="446" viewBox="0 0 909 446" fill="none" xmlns="http://www.w3.org/2000/svg">
<path d="M390 66H566C566.552 66 567 66.4477 567 67V107.5L392 108L386 108.5L380 109L375.5 110L371 111L366 112.5L361.083 114.467C361.028 114.489 360.975 114.516 360.924 114.547L357 117L353.097 119.44C353.032 119.48 352.973 119.527 352.919 119.581L350.5 122L348.05 124.45C348.017 124.483 347.986 124.519 347.957 124.557L345.115 128.347C345.039 128.448 344.983 128.562 344.95 128.684L343.535 133.871C343.512 133.957 343.5 134.045 343.5 134.134V226.5V229.877C343.5 229.959 343.51 230.04 343.53 230.119L343.973 231.894C343.991 231.964 344.016 232.033 344.049 232.098L344.953 233.905C344.984 233.968 345.022 234.028 345.066 234.083L347 236.5L350 239.5L352.93 242.43C352.977 242.477 353.028 242.518 353.082 242.555L355.933 244.455C355.977 244.485 356.025 244.511 356.074 244.533L361.5 247L369.5 250L377.5 252L389.5 253.5L516.5 254L527 253L538 250.5L547.857 247.543C547.952 247.514 548.042 247.472 548.124 247.417L555.5 242.5L560.865 238.598C560.954 238.533 561.032 238.454 561.096 238.363L564.5 233.5L565.442 232.087C565.481 232.029 565.513 231.968 565.539 231.903L566.429 229.677C566.476 229.56 566.5 229.435 566.501 229.31L567 107.5V12.2122C567 12.0723 567.029 11.9339 567.086 11.8061L568.925 7.66967C568.974 7.55752 569.045 7.45549 569.131 7.36871L572.885 3.61475C572.961 3.53875 573.049 3.47549 573.145 3.42743L576.936 1.53178C576.979 1.51062 577.023 1.49249 577.067 1.47753L581.346 0.0513166C581.448 0.0173278 581.555 0 581.662 0H585.5H599H604.877C604.959 0 605.04 0.0100274 605.119 0.0298575L608.894 0.973376C608.964 0.991072 609.033 1.01646 609.098 1.04909L611.896 2.4481C611.965 2.48258 612.03 2.52493 612.089 2.5743L614.93 4.9418C614.977 4.98052 615.019 5.02338 615.058 5.06984L617.354 7.82427C617.45 7.93993 617.519 8.07586 617.555 8.22192L618.47 11.8817C618.49 11.9603 618.5 12.0409 618.5 12.1219L619 231.5L618.012 240.395C618.004 240.465 617.989 240.534 617.966 240.601L615.5 248L613.03 253.927C613.01 253.976 612.986 254.022 612.959 254.067L609 260.5L604.5 266L598.05 272.45C598.017 272.483 597.981 272.514 597.943 272.543L590.079 278.441C590.027 278.48 589.97 278.514 589.911 278.543L578.5 284L564 289L550 292L532 294.5L519.5 295H389L372 293.5L361 292L350.5 290L343 287.5L332.5 284L323 279.5L315 274.5L309 269.5L303.059 263.064C303.02 263.021 302.984 262.975 302.953 262.927L298.5 256L295.053 248.614C295.018 248.538 294.992 248.458 294.977 248.376L292.016 232.585C292.005 232.528 292 232.471 291.999 232.414L291 160V131.083C291 131.028 291.005 130.973 291.014 130.918L292 125L292.986 119.576C292.995 119.526 293.009 119.475 293.025 119.427L296.961 108.111C296.987 108.037 297.021 107.967 297.064 107.901L304.926 95.6151C304.975 95.5387 305.034 95.4694 305.102 95.4089L314.443 87.0508C314.481 87.017 314.521 86.9861 314.564 86.9584L325.911 79.5583C325.97 79.5195 326.033 79.4872 326.1 79.4619L343 73L357.5 69.5L376 67L390 66Z" fill="#FF0000"/>
<path d="M40.4451 349.963H112.348C112.573 349.963 112.756 350.146 112.756 350.372V366.918L41.2622 367.122L38.811 367.326L36.3598 367.53L34.5213 367.939L32.6829 368.348L30.6402 368.96L28.6314 369.764C28.6089 369.773 28.5872 369.784 28.5666 369.797L26.9634 370.799L25.3687 371.795C25.3425 371.812 25.3182 371.831 25.2964 371.853L24.3079 372.841L23.3071 373.842C23.2934 373.856 23.2808 373.871 23.2692 373.886L22.1078 375.435C22.0769 375.476 22.054 375.522 22.0405 375.572L21.4626 377.691C21.453 377.726 21.4482 377.762 21.4482 377.799V415.534V416.913C21.4482 416.947 21.4523 416.98 21.4604 417.012L21.6416 417.737C21.6488 417.766 21.6592 417.794 21.6725 417.821L22.0416 418.559C22.0545 418.585 22.07 418.609 22.088 418.631L22.878 419.619L24.1037 420.845L25.3007 422.042C25.3197 422.061 25.3405 422.078 25.3629 422.093L26.5274 422.869C26.5457 422.881 26.5649 422.892 26.585 422.901L28.8018 423.909L32.0701 425.134L35.3384 425.951L40.2409 426.564L92.125 426.768L96.4146 426.36L100.909 425.338L104.935 424.13C104.974 424.119 105.011 424.101 105.045 424.079L108.058 422.07L110.25 420.476C110.286 420.45 110.318 420.417 110.344 420.38L111.735 418.393L112.12 417.816C112.135 417.792 112.149 417.767 112.159 417.741L112.523 416.831C112.542 416.784 112.552 416.733 112.552 416.681L112.756 366.918V327.989C112.756 327.932 112.768 327.875 112.791 327.823L113.542 326.133C113.563 326.088 113.591 326.046 113.627 326.01L115.16 324.477C115.191 324.446 115.227 324.42 115.267 324.4L116.815 323.626C116.833 323.617 116.851 323.61 116.869 323.604L118.617 323.021C118.659 323.007 118.702 323 118.746 323H120.314H125.829H128.23C128.264 323 128.297 323.004 128.329 323.012L129.871 323.398C129.9 323.405 129.928 323.415 129.955 323.429L131.098 324C131.126 324.014 131.152 324.032 131.177 324.052L132.337 325.019C132.356 325.035 132.374 325.052 132.39 325.071L133.327 326.197C133.367 326.244 133.395 326.299 133.41 326.359L133.784 327.854C133.792 327.886 133.796 327.919 133.796 327.952L134 417.576L133.596 421.21C133.593 421.239 133.587 421.267 133.578 421.294L132.57 424.317L131.561 426.739C131.553 426.758 131.543 426.777 131.532 426.796L129.915 429.424L128.076 431.671L125.441 434.306C125.428 434.319 125.413 434.332 125.398 434.344L122.185 436.753C122.163 436.769 122.14 436.783 122.116 436.795L117.454 439.024L111.53 441.067L105.811 442.293L98.4573 443.314L93.3506 443.518H40.0366L33.0915 442.905L28.5976 442.293L24.3079 441.476L21.2439 440.454L16.9543 439.024L13.0732 437.186L9.80488 435.143L7.35366 433.101L4.92662 430.471C4.91053 430.454 4.89599 430.435 4.88316 430.415L3.06402 427.585L1.65597 424.568C1.64148 424.537 1.63095 424.504 1.62464 424.471L0.415011 418.019C0.410702 417.996 0.408374 417.973 0.408052 417.95L0 388.366V376.552C0 376.53 0.00185918 376.507 0.00555858 376.485L0.408537 374.067L0.811402 371.851C0.815177 371.831 0.820555 371.81 0.827488 371.79L2.43541 367.167C2.44591 367.137 2.45993 367.108 2.47717 367.081L5.68942 362.062C5.70939 362.031 5.73351 362.003 5.76111 361.978L9.57743 358.563C9.59286 358.55 9.60932 358.537 9.62667 358.526L14.2623 355.502C14.2865 355.487 14.3124 355.473 14.3395 355.463L21.2439 352.823L27.1677 351.393L34.7256 350.372L40.4451 349.963Z" fill="#FF0000"/>
<path d="M184 350H241V368H184L178.5 369.5L176.5 370L174 371L172 373L169 377L168.5 416L169.5 419L171.5 421.5L175.5 424L179.5 426L185 427H239.5L246 425.5L251.5 423L255 420L256 416.5L256.5 377.5L255.5 375.5L253.5 372.5L250 370.5L245.5 369L241 368V350L249.5 351L253.5 352L256.5 353L260 354.5L264 356L266.5 357.5L269.5 359.5L272.5 363L275 366.5L276 368.5L277 371L278 374V419L277.5 422.5L276 425.5L273.5 430.5L270.5 434.5L265 438L259 440.5L253 442.5L247 444.5H185H181L177.5 444L173 443L169.5 442L162.5 439L157.5 436.5L153 432.5L150.5 429L148 425L147 421V374.5L148 370.5L150.5 366L153.5 362L157.5 358L162.5 355L168 353.5L174.5 351.5L184 350Z" fill="#FF0000"/>
<path d="M184 350H241V368H184L178.5 369.5L176.5 370L174 371L172 373L169 377L168.5 416L169.5 419L171.5 421.5L175.5 424L179.5 426L185 427H239.5L246 425.5L251.5 423L255 420L256 416.5L256.5 377.5L255.5 375.5L253.5 372.5L250 370.5L245.5 369L241 368V350L249.5 351L253.5 352L256.5 353L260 354.5L264 356L266.5 357.5L269.5 359.5L272.5 363L275 366.5L276 368.5L277 371L278 374V419L277.5 422.5L276 425.5L273.5 430.5L270.5 434.5L265 438L259 440.5L253 442.5L247 444.5H185H181L177.5 444L173 443L169.5 442L162.5 439L157.5 436.5L153 432.5L150.5 429L148 425L147 421V374.5L148 370.5L150.5 366L153.5 362L157.5 358L162.5 355L168 353.5L174.5 351.5L184 350Z" fill="#FF0000"/>
<path d="M771 351H828V369H771L765.5 370.5L763.5 371L761 372L759 374L756 378L755.5 417L756.5 420L758.5 422.5L762.5 425L766.5 427L772 428H826.5L833 426.5L838.5 424L842 421L843 417.5L843.5 378.5L842.5 376.5L840.5 373.5L837 371.5L832.5 370L828 369V351L836.5 352L840.5 353L843.5 354L847 355.5L851 357L853.5 358.5L856.5 360.5L859.5 364L862 367.5L863 369.5L864 372L865 375V420L864.5 423.5L863 426.5L860.5 431.5L857.5 435.5L852 439L846 441.5L840 443.5L834 445.5H772H768L764.5 445L760 444L756.5 443L749.5 440L744.5 437.5L740 433.5L737.5 430L735 426L734 422V375.5L735 371.5L737.5 367L740.5 363L744.5 359L749.5 356L755 354.5L761.5 352.5L771 351Z" fill="#FF0000"/>
<path d="M771 351H828V369H771L765.5 370.5L763.5 371L761 372L759 374L756 378L755.5 417L756.5 420L758.5 422.5L762.5 425L766.5 427L772 428H826.5L833 426.5L838.5 424L842 421L843 417.5L843.5 378.5L842.5 376.5L840.5 373.5L837 371.5L832.5 370L828 369V351L836.5 352L840.5 353L843.5 354L847 355.5L851 357L853.5 358.5L856.5 360.5L859.5 364L862 367.5L863 369.5L864 372L865 375V420L864.5 423.5L863 426.5L860.5 431.5L857.5 435.5L852 439L846 441.5L840 443.5L834 445.5H772H768L764.5 445L760 444L756.5 443L749.5 440L744.5 437.5L740 433.5L737.5 430L735 426L734 422V375.5L735 371.5L737.5 367L740.5 363L744.5 359L749.5 356L755 354.5L761.5 352.5L771 351Z" fill="#FF0000"/>
<path d="M291 378V372.5L293 368L295 364.5L299 359.5L302.5 357L307 355L311.5 353L317 352L322 351L327.5 350H385L393 351L400.5 353L408.5 356.5L412.5 359L414.5 361L417 363.5L419 367L420 369.5L421 374.5L421.5 438.5V440.5L420.5 442.5L419.5 443.5L418.5 444.5L417 445H405L403.5 444.5L402 443.5L400.5 442.5L399.5 440.5L400 379.5L399 376.5L397.5 374L395.5 372.5L393 371L390.5 370L386.5 368.5L384 368H329L325 368.5L319 370.5L315 373.5L312 378V439L311.5 441.5L310 443L307.5 444.5H295L293 443.5L292 442L291 439V378Z" fill="#FF0000"/>
<path d="M475 378H552V394H475L470.5 394.5L466.5 395.5L463 397L460 398.5L458 399.5L455.5 402.5L455 405.5V416.5L456.5 420L458.5 422L461 423.5L464 425L466.5 425.5L469.5 426.5L474 427H534L539.5 426L544.5 424L547.5 422L551.5 418.5V394V377L551 374.5L548.5 372.5L546.5 370.5L543 369L538.5 368H508.5L506.5 367L505 366L504 364.5L503 362.5V355L503.5 353L504.5 351.5L507.5 350.5H537.5L543.5 351L547 352L550.5 353L554 354L557.5 355.5L560.5 357L564.5 359.5L567.5 362.5L570 366.5L572 370.5L573 373.5V421L572.5 424L570.5 427.5L568.5 430.5L565.5 434L562 437L557 439.5L551 441.5L546 443L542.5 444H466.5L462.5 443L457.5 442L454 441.5L449.5 439.5L446.5 438L444 436.5L441.5 434.5L438.5 431.5L436.5 429L435 426L433.5 422L434 403.5V399L435 397L436.5 393.5L438.5 390.5L441 388L444.5 385L449 382.5L453 381L457 380L462 379L468.5 378H475Z" fill="#FF0000"/>
<path d="M619.069 350.578C619.356 350.526 619.647 350.499 619.939 350.498L716.976 350.025C719.747 350.011 722 352.253 722 355.024V362.524C722 365.276 719.776 367.511 717.025 367.524L620.95 367.995C620.322 367.998 619.701 368.12 619.118 368.353L617.5 369L615 370L612.081 371.668C611.696 371.888 611.341 372.159 611.027 372.473L610 373.5L608.751 374.749C608.584 374.916 608.429 375.095 608.287 375.284L608 375.667C607.351 376.532 607 377.585 607 378.667V416.037C607 416.673 607.121 417.303 607.358 417.894L607.619 418.547C607.87 419.176 608.247 419.747 608.726 420.226L609.749 421.249C609.916 421.416 610.095 421.571 610.284 421.713L612 423L614.156 424.294C614.385 424.431 614.624 424.55 614.872 424.649L617 425.5L619.53 426.343C619.843 426.448 620.165 426.521 620.491 426.561L624 427L718.154 427.49C719.322 427.496 720.424 428.03 721.153 428.941V428.941C721.701 429.627 722 430.478 722 431.356V439.805C722 441.196 721.382 442.515 720.314 443.405V443.405C719.465 444.112 718.394 444.497 717.29 444.491L620.5 444H617.495C617.166 444 616.837 443.967 616.515 443.903L612 443L608 442L603.5 440.5L597.649 438.25C597.218 438.084 596.813 437.86 596.444 437.583L593.439 435.329C593.147 435.11 592.88 434.86 592.643 434.583L590 431.5L588.424 429.53C588.143 429.178 587.91 428.79 587.733 428.376L586.5 425.5L585.219 421.23C585.074 420.746 585.003 420.243 585.009 419.737L585.5 376L585.908 371.916C585.969 371.31 586.139 370.721 586.411 370.177L588.5 366L590.5 363L593.143 359.917C593.38 359.64 593.647 359.39 593.939 359.171L595.139 358.271C595.379 358.091 595.635 357.933 595.903 357.798L598.5 356.5L601.475 354.8C601.824 354.601 602.195 354.444 602.582 354.334L605.5 353.5L609.5 352.5L614 351.5L619.069 350.578Z" fill="#FF0000"/>
<path d="M909 360.5C909 370.717 900.717 379 890.5 379C880.283 379 872 370.717 872 360.5C872 350.283 880.283 342 890.5 342C900.717 342 909 350.283 909 360.5ZM876.211 360.5C876.211 368.392 882.608 374.789 890.5 374.789C898.392 374.789 904.789 368.392 904.789 360.5C904.789 352.608 898.392 346.211 890.5 346.211C882.608 346.211 876.211 352.608 876.211 360.5Z" fill="#FF0000"/>
<path d="M883 352L883.5 351L884 350.5L885 350H888H893L895 351L896.5 352L897.5 353L898 354.5V357.5L897.5 358.5L896.5 359.5L895.5 360.5L895 361.5L895.5 362.5L896.5 363.5L897 364L897.5 365L898 366.5V367V368V370V371H896.5H895.5H894L893.5 370V369V368V367V366.5L893 365L891 363H883.5L886.5 359.5H891L892.5 359L893.5 358.5L894 357.5V356.5V355.5L893.5 354.5L893 354L887 353.882V371H883V352Z" fill="#FF0000"/>
</svg>
