<svg width="909" height="123" viewBox="0 0 909 123" fill="none" xmlns="http://www.w3.org/2000/svg">
<path d="M40.4451 26.9634H112.348C112.573 26.9634 112.756 27.1463 112.756 27.372V43.9177L41.2622 44.122L38.811 44.3262L36.3598 44.5305L34.5213 44.939L32.6829 45.3476L30.6402 45.9604L28.6314 46.7639C28.6089 46.7729 28.5872 46.7839 28.5666 46.7968L26.9634 47.7988L25.3687 48.7955C25.3425 48.8118 25.3182 48.8312 25.2964 48.853L24.3079 49.8415L23.3071 50.8423C23.2934 50.8559 23.2808 50.8706 23.2692 50.886L22.1078 52.4346C22.0769 52.4758 22.054 52.5225 22.0405 52.5722L21.4626 54.6911C21.453 54.7262 21.4482 54.7623 21.4482 54.7986V92.5335V93.9131C21.4482 93.9465 21.4523 93.9798 21.4604 94.0122L21.6416 94.737C21.6488 94.7659 21.6592 94.7939 21.6725 94.8206L22.0416 95.5588C22.0545 95.5846 22.07 95.6089 22.088 95.6314L22.878 96.6189L24.1037 97.8445L25.3007 99.0415C25.3197 99.0605 25.3405 99.0776 25.3629 99.0926L26.5274 99.8689C26.5457 99.8811 26.5649 99.8918 26.585 99.9009L28.8018 100.909L32.0701 102.134L35.3384 102.951L40.2409 103.564L92.125 103.768L96.4146 103.36L100.909 102.338L104.935 101.13C104.974 101.119 105.011 101.101 105.045 101.079L108.058 99.0701L110.25 97.4761C110.286 97.4495 110.318 97.4171 110.344 97.38L111.735 95.3933L112.12 94.8159C112.135 94.7923 112.149 94.7673 112.159 94.741L112.523 93.8314C112.542 93.7837 112.552 93.7327 112.552 93.6813L112.756 43.9177V4.98914C112.756 4.93197 112.768 4.87545 112.791 4.82321L113.542 3.13334C113.563 3.08752 113.591 3.04584 113.627 3.01039L115.16 1.47676C115.191 1.44571 115.227 1.41987 115.267 1.40023L116.815 0.625789C116.833 0.617144 116.851 0.609737 116.869 0.603624L118.617 0.0209648C118.659 0.00707909 118.702 0 118.746 0H120.314H125.829H128.23C128.264 0 128.297 0.00409654 128.329 0.0121979L129.871 0.39766C129.9 0.404889 129.928 0.415262 129.955 0.428592L131.098 1.00014C131.126 1.01423 131.152 1.03153 131.177 1.0517L132.337 2.01891C132.356 2.03472 132.374 2.05223 132.39 2.07121L133.327 3.1965C133.367 3.24375 133.395 3.29928 133.41 3.35895L133.784 4.85411C133.792 4.88621 133.796 4.91917 133.796 4.95226L134 94.5762L133.596 98.21C133.593 98.2386 133.587 98.2668 133.578 98.2941L132.57 101.317L131.561 103.739C131.553 103.758 131.543 103.777 131.532 103.796L129.915 106.424L128.076 108.671L125.441 111.306C125.428 111.319 125.413 111.332 125.398 111.344L122.185 113.753C122.163 113.769 122.14 113.783 122.116 113.795L117.454 116.024L111.53 118.067L105.811 119.293L98.4573 120.314L93.3506 120.518H40.0366L33.0915 119.905L28.5976 119.293L24.3079 118.476L21.2439 117.454L16.9543 116.024L13.0732 114.186L9.80488 112.143L7.35366 110.101L4.92662 107.471C4.91053 107.454 4.89599 107.435 4.88316 107.415L3.06402 104.585L1.65597 101.568C1.64148 101.537 1.63095 101.504 1.62464 101.471L0.415011 95.0193C0.410702 94.9963 0.408374 94.973 0.408052 94.9496L0 65.3659V53.5521C0 53.5296 0.00185918 53.5071 0.00555858 53.4849L0.408537 51.0671L0.811402 48.8513C0.815177 48.8305 0.820555 48.8101 0.827488 48.7902L2.43541 44.1674C2.44591 44.1372 2.45993 44.1083 2.47717 44.0814L5.68942 39.0623C5.70939 39.0311 5.73351 39.0027 5.76111 38.978L9.57743 35.5634C9.59286 35.5496 9.60932 35.537 9.62667 35.5257L14.2623 32.5025C14.2865 32.4866 14.3124 32.4734 14.3395 32.4631L21.2439 29.8232L27.1677 28.3933L34.7256 27.372L40.4451 26.9634Z" fill="white"/>
<path d="M184 27H241V45H184L178.5 46.5L176.5 47L174 48L172 50L169 54L168.5 93L169.5 96L171.5 98.5L175.5 101L179.5 103L185 104H239.5L246 102.5L251.5 100L255 97L256 93.5L256.5 54.5L255.5 52.5L253.5 49.5L250 47.5L245.5 46L241 45V27L249.5 28L253.5 29L256.5 30L260 31.5L264 33L266.5 34.5L269.5 36.5L272.5 40L275 43.5L276 45.5L277 48L278 51V96L277.5 99.5L276 102.5L273.5 107.5L270.5 111.5L265 115L259 117.5L253 119.5L247 121.5H185H181L177.5 121L173 120L169.5 119L162.5 116L157.5 113.5L153 109.5L150.5 106L148 102L147 98V51.5L148 47.5L150.5 43L153.5 39L157.5 35L162.5 32L168 30.5L174.5 28.5L184 27Z" fill="white"/>
<path d="M184 27H241V45H184L178.5 46.5L176.5 47L174 48L172 50L169 54L168.5 93L169.5 96L171.5 98.5L175.5 101L179.5 103L185 104H239.5L246 102.5L251.5 100L255 97L256 93.5L256.5 54.5L255.5 52.5L253.5 49.5L250 47.5L245.5 46L241 45V27L249.5 28L253.5 29L256.5 30L260 31.5L264 33L266.5 34.5L269.5 36.5L272.5 40L275 43.5L276 45.5L277 48L278 51V96L277.5 99.5L276 102.5L273.5 107.5L270.5 111.5L265 115L259 117.5L253 119.5L247 121.5H185H181L177.5 121L173 120L169.5 119L162.5 116L157.5 113.5L153 109.5L150.5 106L148 102L147 98V51.5L148 47.5L150.5 43L153.5 39L157.5 35L162.5 32L168 30.5L174.5 28.5L184 27Z" fill="white"/>
<path d="M771 28H828V46H771L765.5 47.5L763.5 48L761 49L759 51L756 55L755.5 94L756.5 97L758.5 99.5L762.5 102L766.5 104L772 105H826.5L833 103.5L838.5 101L842 98L843 94.5L843.5 55.5L842.5 53.5L840.5 50.5L837 48.5L832.5 47L828 46V28L836.5 29L840.5 30L843.5 31L847 32.5L851 34L853.5 35.5L856.5 37.5L859.5 41L862 44.5L863 46.5L864 49L865 52V97L864.5 100.5L863 103.5L860.5 108.5L857.5 112.5L852 116L846 118.5L840 120.5L834 122.5H772H768L764.5 122L760 121L756.5 120L749.5 117L744.5 114.5L740 110.5L737.5 107L735 103L734 99V52.5L735 48.5L737.5 44L740.5 40L744.5 36L749.5 33L755 31.5L761.5 29.5L771 28Z" fill="white"/>
<path d="M771 28H828V46H771L765.5 47.5L763.5 48L761 49L759 51L756 55L755.5 94L756.5 97L758.5 99.5L762.5 102L766.5 104L772 105H826.5L833 103.5L838.5 101L842 98L843 94.5L843.5 55.5L842.5 53.5L840.5 50.5L837 48.5L832.5 47L828 46V28L836.5 29L840.5 30L843.5 31L847 32.5L851 34L853.5 35.5L856.5 37.5L859.5 41L862 44.5L863 46.5L864 49L865 52V97L864.5 100.5L863 103.5L860.5 108.5L857.5 112.5L852 116L846 118.5L840 120.5L834 122.5H772H768L764.5 122L760 121L756.5 120L749.5 117L744.5 114.5L740 110.5L737.5 107L735 103L734 99V52.5L735 48.5L737.5 44L740.5 40L744.5 36L749.5 33L755 31.5L761.5 29.5L771 28Z" fill="white"/>
<path d="M291 55V49.5L293 45L295 41.5L299 36.5L302.5 34L307 32L311.5 30L317 29L322 28L327.5 27H385L393 28L400.5 30L408.5 33.5L412.5 36L414.5 38L417 40.5L419 44L420 46.5L421 51.5L421.5 115.5V117.5L420.5 119.5L419.5 120.5L418.5 121.5L417 122H405L403.5 121.5L402 120.5L400.5 119.5L399.5 117.5L400 56.5L399 53.5L397.5 51L395.5 49.5L393 48L390.5 47L386.5 45.5L384 45H329L325 45.5L319 47.5L315 50.5L312 55V116L311.5 118.5L310 120L307.5 121.5H295L293 120.5L292 119L291 116V55Z" fill="white"/>
<path d="M475 55H552V71H475L470.5 71.5L466.5 72.5L463 74L460 75.5L458 76.5L455.5 79.5L455 82.5V93.5L456.5 97L458.5 99L461 100.5L464 102L466.5 102.5L469.5 103.5L474 104H534L539.5 103L544.5 101L547.5 99L551.5 95.5V71V54L551 51.5L548.5 49.5L546.5 47.5L543 46L538.5 45H508.5L506.5 44L505 43L504 41.5L503 39.5V32L503.5 30L504.5 28.5L507.5 27.5H537.5L543.5 28L547 29L550.5 30L554 31L557.5 32.5L560.5 34L564.5 36.5L567.5 39.5L570 43.5L572 47.5L573 50.5V98L572.5 101L570.5 104.5L568.5 107.5L565.5 111L562 114L557 116.5L551 118.5L546 120L542.5 121H466.5L462.5 120L457.5 119L454 118.5L449.5 116.5L446.5 115L444 113.5L441.5 111.5L438.5 108.5L436.5 106L435 103L433.5 99L434 80.5V76L435 74L436.5 70.5L438.5 67.5L441 65L444.5 62L449 59.5L453 58L457 57L462 56L468.5 55H475Z" fill="white"/>
<path d="M619.069 27.5785C619.356 27.5263 619.647 27.4993 619.939 27.4979L716.976 27.0245C719.747 27.011 722 29.2535 722 32.0245V39.5245C722 42.2763 719.776 44.5109 717.025 44.5244L620.95 44.9953C620.322 44.9984 619.701 45.1197 619.118 45.3529L617.5 46L615 47L612.081 48.6678C611.696 48.8883 611.341 49.1592 611.027 49.4735L610 50.5L608.751 51.7487C608.584 51.916 608.429 52.095 608.287 52.2843L608 52.6667C607.351 53.5321 607 54.5848 607 55.6667V93.0371C607 93.6732 607.121 94.3034 607.358 94.894L607.619 95.5471C607.87 96.1758 608.247 96.7469 608.726 97.2257L609.749 98.2487C609.916 98.416 610.095 98.5712 610.284 98.7132L612 100L614.156 101.294C614.385 101.431 614.624 101.55 614.872 101.649L617 102.5L619.53 103.343C619.843 103.448 620.165 103.521 620.491 103.561L624 104L718.154 104.49C719.322 104.496 720.424 105.03 721.153 105.941V105.941C721.701 106.627 722 107.478 722 108.356V116.805C722 118.196 721.382 119.515 720.314 120.405V120.405C719.465 121.112 718.394 121.497 717.29 121.491L620.5 121H617.495C617.166 121 616.837 120.967 616.515 120.903L612 120L608 119L603.5 117.5L597.649 115.25C597.218 115.084 596.813 114.86 596.444 114.583L593.439 112.329C593.147 112.11 592.88 111.86 592.643 111.583L590 108.5L588.424 106.53C588.143 106.178 587.91 105.79 587.733 105.376L586.5 102.5L585.219 98.2304C585.074 97.7463 585.003 97.2429 585.009 96.7375L585.5 53L585.908 48.9156C585.969 48.3103 586.139 47.7211 586.411 47.177L588.5 43L590.5 40L593.143 36.9167C593.38 36.6397 593.647 36.3896 593.939 36.1707L595.139 35.2705C595.379 35.0905 595.635 34.9325 595.903 34.7984L598.5 33.5L601.475 31.8002C601.824 31.6008 602.195 31.4442 602.582 31.3338L605.5 30.5L609.5 29.5L614 28.5L619.069 27.5785Z" fill="white"/>
<path d="M909 37.5C909 47.7173 900.717 56 890.5 56C880.283 56 872 47.7173 872 37.5C872 27.2827 880.283 19 890.5 19C900.717 19 909 27.2827 909 37.5ZM876.211 37.5C876.211 45.3918 882.608 51.7894 890.5 51.7894C898.392 51.7894 904.789 45.3918 904.789 37.5C904.789 29.6082 898.392 23.2106 890.5 23.2106C882.608 23.2106 876.211 29.6082 876.211 37.5Z" fill="white"/>
<path d="M883 29L883.5 28L884 27.5L885 27H888H893L895 28L896.5 29L897.5 30L898 31.5V34.5L897.5 35.5L896.5 36.5L895.5 37.5L895 38.5L895.5 39.5L896.5 40.5L897 41L897.5 42L898 43.5V44V45V47V48H896.5H895.5H894L893.5 47V46V45V44V43.5L893 42L891 40H883.5L886.5 36.5H891L892.5 36L893.5 35.5L894 34.5V33.5V32.5L893.5 31.5L893 31L887 30.8817V48H883V29Z" fill="white"/>
</svg>
